<svg xmlns="http://www.w3.org/2000/svg" width="16" height="16" viewBox="0 0 24 24" fill="none" stroke="currentColor" stroke-width="2" stroke-linecap="round" stroke-linejoin="round">
  <path d="M13 2H6a2 2 0 0 0-2 2v16a2 2 0 0 0 2 2h12a2 2 0 0 0 2-2v-9" />
  <path d="M18 2h-2c-.2 0-.5 0-.8.8L14.5 4H9.1c-.2 0-.5 0-.7.5L7 7" />
  <path d="M12 13 8.1 9.5c-.4-.3-1.4-.5-2.1-.5" />
  <path d="m15 10 3.5 3.5c1 1 1.5 2.3 1.5 3.5v3.7c0 .8-.7 1.3-1.5 1.3s-1.5-.5-1.5-1.3V17h-2" />
  <path d="M18 22c-.9 0-1.3-.6-1.3-1.3v-1.4c0-1.3.7-2.9 1.3-3.3" />
</svg> 